<svg width="24" height="32" viewBox="0 0 24 32" fill="none" xmlns="http://www.w3.org/2000/svg">
<path d="M11.8301 26.1948C5.71379 26.1948 0.753174 23.6668 0.753174 20.5478C0.753174 19.3958 1.4381 18.3266 2.59933 17.4344V14.9007C2.59942 13.0552 3.13167 11.2504 4.12986 9.71084C5.12806 8.17131 6.54814 6.96497 8.21348 6.24189C8.05033 5.41815 8.16219 4.56243 8.53124 3.81101C8.90028 3.05959 9.5053 2.45567 10.2499 2.09543C10.9946 1.73519 11.836 1.63933 12.6403 1.82313C13.4445 2.00692 14.1653 2.45981 14.6879 3.10965C15.0342 3.54178 15.2819 4.04698 15.4131 4.58869C15.5443 5.13041 15.5558 5.69509 15.4467 6.24189C17.1118 6.96538 18.5316 8.17181 19.5297 9.71126C20.5279 11.2507 21.0603 13.0553 21.0609 14.9007V17.4344C22.2221 18.3266 22.907 19.3958 22.907 20.5478C22.907 23.6668 17.9464 26.1948 11.8301 26.1948ZM11.8301 28.0772C13.1113 28.0772 14.3261 27.9529 15.4929 27.776C15.5003 27.8776 15.5224 27.9737 15.5224 28.0772C15.5224 29.0756 15.1334 30.0332 14.441 30.7392C13.7485 31.4452 12.8094 31.8419 11.8301 31.8419C10.8508 31.8419 9.91168 31.4452 9.21924 30.7392C8.5268 30.0332 8.13779 29.0756 8.13779 28.0772C8.13779 27.9737 8.15994 27.8776 8.16733 27.776C9.33594 27.9529 10.5489 28.0772 11.8301 28.0772Z" fill="#EDD556"/>
</svg>
