<svg width="32" height="32" viewBox="0 0 32 32" fill="none" xmlns="http://www.w3.org/2000/svg">
<g clip-path="url(#clip0_14_10)">
<path d="M16 0C20.2435 0 24.3131 1.68571 27.3137 4.68629C30.3143 7.68687 32 11.7565 32 16C32 20.2435 30.3143 24.3131 27.3137 27.3137C24.3131 30.3143 20.2435 32 16 32C11.7565 32 7.68687 30.3143 4.68629 27.3137C1.68571 24.3131 0 20.2435 0 16C0 11.7565 1.68571 7.68687 4.68629 4.68629C7.68687 1.68571 11.7565 0 16 0ZM16 4.266C12.8879 4.266 9.90336 5.50226 7.70281 7.70281C5.50226 9.90336 4.266 12.8879 4.266 16C4.266 19.1121 5.50226 22.0966 7.70281 24.2972C9.90336 26.4977 12.8879 27.734 16 27.734C19.1121 27.734 22.0966 26.4977 24.2972 24.2972C26.4977 22.0966 27.734 19.1121 27.734 16C27.734 12.8879 26.4977 9.90336 24.2972 7.70281C22.0966 5.50226 19.1121 4.266 16 4.266ZM16 6.4C18.5461 6.4 20.9879 7.41143 22.7882 9.21177C24.5886 11.0121 25.6 13.4539 25.6 16C25.6 18.5461 24.5886 20.9879 22.7882 22.7882C20.9879 24.5886 18.5461 25.6 16 25.6C13.4539 25.6 11.0121 24.5886 9.21177 22.7882C7.41143 20.9879 6.4 18.5461 6.4 16C6.4 13.4539 7.41143 11.0121 9.21177 9.21177C11.0121 7.41143 13.4539 6.4 16 6.4ZM14.934 11.734C14.7938 11.7337 14.655 11.7611 14.5254 11.8146C14.3959 11.868 14.2781 11.9465 14.1789 12.0455C14.0797 12.1445 14.001 12.2621 13.9473 12.3916C13.8936 12.5211 13.866 12.6598 13.866 12.8V17.066C13.866 17.656 14.346 18.134 14.934 18.134H21.334C21.617 18.134 21.8884 18.0216 22.0885 17.8215C22.2886 17.6214 22.401 17.35 22.401 17.067C22.401 16.784 22.2886 16.5126 22.0885 16.3125C21.8884 16.1124 21.617 16 21.334 16H16V12.8C16 12.5173 15.8877 12.2461 15.6878 12.0462C15.4879 11.8463 15.2167 11.734 14.934 11.734Z" fill="#8E4CB6"/>
</g>
<defs>
<clipPath id="clip0_14_10">
<rect width="32" height="32" fill="white"/>
</clipPath>
</defs>
</svg>
